<svg xmlns="http://www.w3.org/2000/svg" width="32" height="32" viewBox="0 0 32 32">
    <g fill="#646464" fill-rule="evenodd">
        <path d="M10.21 28v-2.98H6.52V28h-1v-6.67h1v2.8h3.69v-2.8h1V28h-1zm2.48 0v-6.67h1V28h-1zm2.49 0v-6.67h2.38c2.08 0 3.46 1.42 3.46 3.34 0 1.93-1.38 3.33-3.46 3.33h-2.38zm1-.88h1.38c1.54 0 2.43-1.1 2.43-2.45 0-1.37-.86-2.46-2.43-2.46h-1.38v4.91zm6.05.88v-6.67h4.48v.88h-3.48v1.95h3.41v.88h-3.41v2.08h3.48V28h-4.48zM12.575 14.981l.783-1.416A4.497 4.497 0 0 1 11.5 9.929c0-.794.21-1.577.613-2.26-1.567.803-2.873 2.069-3.827 3.545 1.044 1.617 2.52 2.973 4.289 3.767zm3.907-7.624A.489.489 0 0 0 16 6.875a3.065 3.065 0 0 0-3.054 3.054c0 .26.221.482.483.482a.489.489 0 0 0 .482-.482c0-1.156.944-2.09 2.089-2.09a.489.489 0 0 0 .482-.482zm3.646-1.918c0 .02 0 .07-.01.09-2.12 3.787-4.218 7.594-6.338 11.38l-.492.895c-.06.1-.17.16-.281.16-.181 0-1.135-.582-1.346-.703a.32.32 0 0 1-.161-.281c0-.16.342-.703.442-.874-1.949-.884-3.586-2.39-4.741-4.199a1.296 1.296 0 0 1 0-1.386C9.19 7.468 12.294 5.43 16 5.43c.603 0 1.215.06 1.808.17l.542-.974c.06-.1.161-.16.282-.16.18 0 1.125.582 1.336.702.1.06.16.161.16.272zm.372 4.49a4.494 4.494 0 0 1-2.893 4.198l2.813-5.042c.05.281.08.562.08.844zm4.5 1.285c0 .261-.07.472-.2.693-.312.513-.704 1.005-1.096 1.457C21.736 15.624 19.024 17 16 17l.743-1.326c2.923-.251 5.404-2.029 6.971-4.46a10.438 10.438 0 0 0-2.832-2.953l.633-1.125c1.245.834 2.5 2.09 3.284 3.385.13.221.201.432.201.693z"/>
    </g>
</svg>
