<svg xmlns="http://www.w3.org/2000/svg" width="32" height="32" viewBox="0 0 32 32">
    <g fill="#646464" fill-rule="evenodd">
        <path d="M1.505 27.06l.57-.77c.45.5 1.17.94 2.1.94 1.08 0 1.46-.55 1.46-1.03 0-.7-.76-.9-1.61-1.12-1.07-.28-2.31-.59-2.31-1.95 0-1.1.97-1.9 2.36-1.9 1.03 0 1.84.33 2.43.93l-.58.74c-.51-.54-1.21-.78-1.93-.78-.74 0-1.25.38-1.25.94 0 .6.72.79 1.55 1 1.09.29 2.36.63 2.36 2.05 0 1.04-.72 2.01-2.52 2.01-1.19 0-2.06-.43-2.63-1.06zm11 .94v-2.98h-3.69V28h-1v-6.67h1v2.8h3.69v-2.8h1V28h-1zm2.2-3.33c0-1.98 1.37-3.45 3.36-3.45 1.99 0 3.36 1.47 3.36 3.45 0 1.98-1.37 3.45-3.36 3.45-1.99 0-3.36-1.47-3.36-3.45zm5.69 0c0-1.47-.92-2.56-2.33-2.56-1.43 0-2.33 1.09-2.33 2.56 0 1.46.9 2.56 2.33 2.56 1.41 0 2.33-1.1 2.33-2.56zm7.35 3.33l-1.39-5.15-1.38 5.15h-1.07l-1.91-6.67h1.12l1.38 5.35 1.46-5.35h.81l1.45 5.35 1.38-5.35h1.12l-1.9 6.67h-1.07zM23.714 11.214c-.954-1.476-2.26-2.742-3.827-3.545.402.683.613 1.466.613 2.26 0 2.48-2.019 4.5-4.5 4.5a4.505 4.505 0 0 1-4.5-4.5c0-.794.21-1.577.613-2.26-1.567.803-2.873 2.069-3.827 3.545 1.717 2.652 4.49 4.5 7.714 4.5s5.997-1.848 7.714-4.5zm-7.232-3.857A.489.489 0 0 0 16 6.875a3.065 3.065 0 0 0-3.054 3.054c0 .26.221.482.483.482a.489.489 0 0 0 .482-.482A2.1 2.1 0 0 1 16 7.839a.489.489 0 0 0 .482-.482zM25 11.214c0 .251-.08.482-.2.693C22.95 14.951 19.565 17 16 17c-3.566 0-6.95-2.06-8.8-5.093-.12-.21-.2-.442-.2-.693 0-.25.08-.482.2-.693C9.05 7.488 12.435 5.43 16 5.43c3.566 0 6.95 2.059 8.8 5.092.12.211.2.442.2.693z"/>
    </g>
</svg>
